<svg width="205" height="71" viewBox="0 0 205 71" fill="none" xmlns="http://www.w3.org/2000/svg">
<path d="M47.688 22.92C46.472 20.68 44.712 18.984 42.408 17.832C40.168 16.616 37.512 16.008 34.44 16.008C29.128 16.008 24.872 17.768 21.672 21.288C18.472 24.744 16.872 29.384 16.872 35.208C16.872 41.416 18.536 46.28 21.864 49.8C25.256 53.256 29.896 54.984 35.784 54.984C39.816 54.984 43.208 53.96 45.96 51.912C48.776 49.864 50.824 46.92 52.104 43.08H31.272V30.984H66.984V46.248C65.768 50.344 63.688 54.152 60.744 57.672C57.864 61.192 54.184 64.04 49.704 66.216C45.224 68.392 40.168 69.48 34.536 69.48C27.88 69.48 21.928 68.04 16.68 65.16C11.496 62.216 7.432 58.152 4.488 52.968C1.608 47.784 0.168 41.864 0.168 35.208C0.168 28.552 1.608 22.632 4.488 17.448C7.432 12.2 11.496 8.136 16.68 5.256C21.864 2.312 27.784 0.839996 34.44 0.839996C42.504 0.839996 49.288 2.792 54.792 6.696C60.36 10.6 64.04 16.008 65.832 22.92H47.688ZM127.629 69L121.389 62.952C115.181 67.688 107.757 70.056 99.117 70.056C93.933 70.056 89.421 69.224 85.581 67.56C81.741 65.832 78.765 63.432 76.653 60.36C74.605 57.224 73.581 53.576 73.581 49.416C73.581 45.192 74.701 41.384 76.941 37.992C79.245 34.536 82.669 31.72 87.213 29.544C85.549 27.496 84.365 25.544 83.661 23.688C82.957 21.768 82.605 19.688 82.605 17.448C82.605 14.248 83.437 11.336 85.101 8.712C86.765 6.088 89.165 4.04 92.301 2.568C95.501 1.032 99.277 0.263998 103.629 0.263998C108.045 0.263998 111.789 1.064 114.861 2.664C117.933 4.264 120.237 6.408 121.773 9.096C123.309 11.784 124.013 14.728 123.885 17.928H108.429C108.493 16.2 108.045 14.888 107.085 13.992C106.189 13.032 104.973 12.552 103.437 12.552C101.901 12.552 100.621 13 99.597 13.896C98.573 14.792 98.061 15.944 98.061 17.352C98.061 18.696 98.477 20.104 99.309 21.576C100.205 23.048 101.581 24.744 103.437 26.664L119.853 42.696C119.981 42.376 120.141 41.992 120.333 41.544C120.589 41.096 120.845 40.584 121.101 40.008L124.653 33.96H141.069L136.461 42.312C134.733 46.088 132.749 49.672 130.509 53.064L146.733 69H127.629ZM99.885 56.808C104.173 56.808 107.981 55.592 111.309 53.16L96.333 38.664C91.725 41.032 89.421 44.232 89.421 48.264C89.421 50.696 90.349 52.744 92.205 54.408C94.125 56.008 96.685 56.808 99.885 56.808ZM204.031 23.304C204.031 27.208 203.135 30.792 201.343 34.056C199.551 37.256 196.799 39.848 193.087 41.832C189.375 43.816 184.767 44.808 179.263 44.808H169.087V69H152.671V1.608H179.263C184.639 1.608 189.183 2.536 192.895 4.392C196.607 6.248 199.391 8.80799 201.247 12.072C203.103 15.336 204.031 19.08 204.031 23.304ZM178.015 31.752C181.151 31.752 183.487 31.016 185.023 29.544C186.559 28.072 187.327 25.992 187.327 23.304C187.327 20.616 186.559 18.536 185.023 17.064C183.487 15.592 181.151 14.856 178.015 14.856H169.087V31.752H178.015Z" fill="#272E3E"/>
</svg>
