<svg width="167" height="167" viewBox="0 0 167 167" fill="none" xmlns="http://www.w3.org/2000/svg">
<path d="M32.955 129.04C33.1974 128.805 33.4397 128.569 34.1919 128.194C35.0905 127.675 35.4792 127.295 35.8678 126.916C35.8678 126.916 35.9653 127.05 36.1489 126.93C36.6379 126.647 36.844 126.4 36.9507 126.071C40.0169 123.788 42.9208 120.038 46.1995 119.675C48.9478 119.371 52.1711 122.964 55.12 124.928C83.9289 144.113 122.667 129.47 132.001 95.8487C132.487 94.0972 132.911 92.3283 133.422 90.3398C144.08 90.3398 154.663 90.3398 165.927 90.3398C162.29 119.896 148.286 142.422 122.293 155.932C90.6694 172.369 59.9452 169.098 30.9845 147.232C30.2419 146.466 29.7946 146.219 29.3472 145.971C29.3472 145.971 28.9782 145.747 28.7423 145.312C28.1865 144.701 27.8666 144.524 27.5467 144.347C27.5467 144.347 27.2147 144.175 27.0308 143.815C26.6664 143.194 26.4188 143.047 26.1039 143.013C25.0645 142.026 24.0251 141.039 22.9038 139.378C22.9049 137.891 22.9878 137.079 23.0708 136.267C23.0708 136.267 23.1062 136.143 23.4417 136.114C24.1616 135.715 24.5461 135.344 24.9305 134.973C25.6843 134.345 26.4382 133.716 27.7264 132.933C28.4891 132.523 28.7173 132.27 28.9456 132.016C29.1777 131.779 29.4099 131.542 30.1994 131.195C31.4896 130.403 32.2223 129.721 32.955 129.04Z" fill="#272E3E"/>
<path d="M118.003 7.18762C118.003 7.18762 118.147 7.36335 118.451 7.60536C119.155 7.94793 119.555 8.04849 119.955 8.14906C119.955 8.14906 119.95 8.0812 120.107 8.35896C120.855 8.8206 121.446 9.00448 122.037 9.18836C122.037 9.18836 122.141 9.36072 122.432 9.60919C123.122 9.98076 123.521 10.1039 123.921 10.227C123.921 10.227 123.901 10.1574 124.037 10.4395C125.117 11.161 126.062 11.6004 127.007 12.0398C127.007 12.0398 126.989 12.0458 127.149 12.3185C128.435 13.21 129.561 13.829 130.687 14.4479C130.687 14.4479 130.723 14.3693 130.804 14.6222C131.227 14.995 131.568 15.1147 131.908 15.2345C131.908 15.2345 131.893 15.1635 131.97 15.4388C132.53 16.0021 133.014 16.2902 133.497 16.5783C133.497 16.5783 133.657 16.3323 133.719 16.6895C134.085 17.1717 134.391 17.2968 134.696 17.4218C134.696 17.4218 134.696 17.3378 134.737 17.5978C135.217 18.1365 135.655 18.4153 136.094 18.694C136.094 18.694 136.365 18.9929 136.669 19.3194C137.298 19.8166 137.623 19.9874 137.948 20.1582C137.948 20.1582 137.949 20.0886 137.994 20.353C138.354 20.772 138.67 20.9267 138.985 21.0814C138.985 21.0814 138.989 21.0421 139.065 21.3162C139.591 21.9138 140.041 22.2374 140.49 22.5609C140.49 22.5609 140.761 22.244 140.724 22.6368C140.88 23.3114 141.146 23.4716 141.485 23.5102C141.485 23.5102 141.645 23.4075 141.662 23.7087C141.87 24.3002 142.137 24.4662 142.481 24.5078C142.481 24.5078 142.58 24.4576 142.637 24.7341C142.886 25.3007 143.154 25.4697 143.498 25.5178C143.617 25.374 143.736 25.2303 143.767 25.5638C144.107 26.3911 144.536 26.7412 144.966 27.0913C144.966 27.0913 144.986 27.0518 145.017 27.323C145.343 27.78 145.638 27.966 145.932 28.1519C145.932 28.1519 145.947 28.0859 145.976 28.361C146.303 28.8269 146.602 29.0177 146.901 29.2085C146.901 29.2085 146.901 29.1369 146.942 29.4629C147.598 30.3923 148.211 30.9956 148.825 31.5989C148.825 31.5989 148.835 31.8099 148.985 32.1798C149.939 33.5029 150.744 34.4562 151.548 35.4095C151.693 35.3156 151.838 35.2217 151.828 35.5494C152.071 36.3794 152.469 36.7878 152.868 37.1962C152.868 37.1962 152.89 37.1245 152.878 37.4183C153.244 38.1605 153.622 38.6089 154 39.0572C154 39.0572 153.993 39.0452 154.022 39.3555C154.648 40.5134 155.246 41.3611 155.843 42.2087C155.843 42.2087 155.869 42.1409 155.875 42.4528C156.166 43.0749 156.451 43.3852 156.736 43.6954C156.736 43.6954 156.68 43.8657 156.76 44.2371C157.193 45.1233 157.546 45.6382 157.898 46.1531C157.898 46.1531 157.941 46.0932 157.913 46.3976C158.236 47.1709 158.586 47.6397 158.936 48.1086C158.936 48.1086 158.978 48.0648 158.931 48.4065C159.476 49.935 160.068 51.1218 160.66 52.3086C160.66 52.3086 160.73 52.2312 160.705 52.6323C162.504 60.1819 164.328 67.3303 166.302 75.0651C154.437 75.0651 143.733 75.0651 133.029 75.0651C128.818 53.6087 116.331 39.635 95.1448 33.9898C91.0097 32.888 89.9749 31.1754 90.146 27.2316C90.5272 18.445 90.4778 9.63969 91.1576 0.590924C92.8195 0.418703 93.9277 0.497573 95.0359 0.576442C95.4481 0.67695 95.8603 0.777459 96.9632 1.00298C99.7262 1.48542 101.798 1.84284 103.871 2.20027C103.871 2.20027 103.925 2.06719 104.177 2.37105C108.953 4.17915 113.478 5.68338 118.003 7.18762Z" fill="#272E3E"/>
<path d="M10.7755 49.3503C18.1602 53.6071 25.1743 57.7862 32.3314 61.7041C35.0744 63.2057 36.0476 64.6111 35.0012 67.9286C31.2561 79.8013 31.8129 91.6239 36.9134 103.028C38.285 106.095 37.6855 107.67 35.0248 109.535C27.5347 114.784 20.258 120.338 12.1347 126.334C9.99823 121.985 7.79144 118.156 6.1764 114.093C-2.0688 93.3468 -2.03275 72.5306 6.12824 51.7538C6.85186 49.9115 7.25565 47.0591 10.7755 49.3503Z" fill="#272E3E"/>
<path d="M64.0235 2.02832C68.0076 1.32974 71.5835 0.704517 75.6129 0C75.6129 11.0967 75.6129 21.662 75.6129 32.7053C63.4796 35.0574 52.9393 40.5748 44.5941 50.0215C44.0306 50.6594 42.0359 50.7751 41.1763 50.2943C32.6323 45.5159 24.1871 40.5606 15.1011 35.3004C27.4556 18.0229 43.5763 7.25017 64.0235 2.02832Z" fill="#272E3E"/>
</svg>
