<svg width="59" height="73" viewBox="0 0 59 73" fill="none" xmlns="http://www.w3.org/2000/svg">
<path fill-rule="evenodd" clip-rule="evenodd" d="M4.19619 46.6138C6.51381 46.6138 8.39238 48.5024 8.39238 50.8324C8.39238 53.1619 6.51381 55.0505 4.19619 55.0505C1.87857 55.0505 0 53.1619 0 50.8324C0 48.5024 1.87857 46.6138 4.19619 46.6138Z" fill="#272E3E"/>
<path fill-rule="evenodd" clip-rule="evenodd" d="M59 21.1654C59 18.8359 57.1213 16.9473 54.8048 16.9473C52.4876 16.9473 50.6095 18.8359 50.6095 21.1654C50.6095 23.4955 52.4876 25.3841 54.8048 25.3841C57.1213 25.3841 59 23.4955 59 21.1654Z" fill="#272E3E"/>
<path fill-rule="evenodd" clip-rule="evenodd" d="M54.7838 29.6627C52.4566 29.6627 50.5696 31.5602 50.5696 33.9002V36.019C50.5696 40.6997 46.7962 44.494 42.1414 44.494C37.4865 44.494 33.7131 40.6997 33.7131 36.019C33.6926 26.6752 26.1534 19.1071 16.8565 19.1071C13.7849 19.1071 10.9082 19.937 8.42827 21.3801V8.47506V0L8.14909 0.140074L0 4.87139V16.9501V31.7815V38.1378C0 40.4778 1.887 42.3753 4.21414 42.3753C6.54186 42.3753 8.42827 40.4778 8.42827 38.1378V36.0572C8.42827 31.3765 12.2017 27.5822 16.8565 27.5822C21.5114 27.5822 25.2848 31.3765 25.2848 36.0572C25.3053 45.401 32.8445 52.9691 42.1414 52.9691C45.213 52.9691 48.0897 52.1393 50.5696 50.6961V63.5629V72.038L50.8488 71.8979L58.9979 67.1666V58.1483V40.2565V33.9002C58.9979 31.5602 57.1109 29.6627 54.7838 29.6627Z" fill="#272E3E"/>
</svg>
