<svg width="140" height="130" viewBox="0 0 140 130" fill="none" xmlns="http://www.w3.org/2000/svg">
<path d="M55.4522 101.617C54.6517 106.924 53.944 111.824 53.1616 117.241C64.3767 117.241 74.7499 117.241 85.8266 117.241C85.8266 114.025 85.826 110.916 85.8267 107.808C85.8289 98.1418 85.7634 88.4747 85.848 78.8089C86.0347 57.4975 101.017 41.6859 122.859 39.9529C128.151 39.5331 133.503 39.8905 139.297 39.8905C139.297 57.2818 139.297 74.6427 139.297 92.321C129.351 92.321 119.437 92.321 109.084 92.321C109.084 88.6854 109.084 85.1497 109.084 80.9975C115.273 80.9975 121.353 80.9975 127.935 80.9975C127.935 71.3482 127.935 62.3033 127.935 53.2958C113.459 50.6508 97.8557 64.0432 97.555 79.5476C97.2673 94.375 97.3178 109.215 97.565 124.043C97.6352 128.253 96.3472 129.482 92.2355 129.43C77.0716 129.237 61.9018 129.22 46.7386 129.442C42.6153 129.503 41.8527 127.966 41.7739 124.207C41.3351 103.286 48.2586 85.0724 61.1517 68.8264C71.6601 55.5851 81.2497 41.7631 84.8854 24.8302C85.7436 20.8334 85.7482 16.6533 86.1926 12.071C75.119 12.071 64.7417 12.071 53.858 12.071C53.7671 14.1358 53.6463 16.0725 53.6021 18.011C53.3023 31.1576 53.8533 44.389 52.5354 57.4319C50.5263 77.3164 36.1544 90.6169 16.1745 92.3928C10.928 92.8591 5.60477 92.4631 0 92.4631C0 75.0501 0 57.961 0 40.4754C10.1341 40.4754 20.1718 40.4754 30.486 40.4754C30.486 44.2024 30.486 47.6219 30.486 51.7737C25.282 51.7737 20.341 51.8914 15.4093 51.7289C12.5122 51.6335 11.1594 52.4564 11.1981 55.6234C11.2815 62.452 11.1154 69.2855 10.9534 76.1146C10.8687 79.6814 12.2502 80.6366 15.8402 80.0814C32.0766 77.5704 41.8207 66.4509 41.8649 49.8959C41.9049 34.8962 41.9834 19.895 41.7971 4.89759C41.751 1.19064 42.8405 -0.0413627 46.5951 0.00105332C62.0927 0.176128 77.5941 0.169679 93.0922 0.0239339C96.7235 -0.0102151 97.4075 1.4331 97.5244 4.75831C98.2845 26.3726 91.1624 45.2714 78.3672 62.3543C73.2766 69.1508 67.9068 75.8081 63.5475 83.0598C60.168 88.6817 58.1617 95.1292 55.4522 101.617Z" fill="#272E3E"/>
</svg>
